<?xml version="1.0" encoding="utf-8"?>
<!-- Generator: Adobe Illustrator 21.1.0, SVG Export Plug-In . SVG Version: 6.00 Build 0)  -->
<svg version="1.1" id="Layer_1" xmlns="http://www.w3.org/2000/svg" xmlns:xlink="http://www.w3.org/1999/xlink" x="0px" y="0px"
	 viewBox="0 0 260 261" style="enable-background:new 0 0 260 261;" xml:space="preserve">
<g transform="translate(0.000000,261.000000) scale(0.100000,-0.100000)">
	<path d="M1014.3,2492.4c-135.2-35.4-233.8-136.5-233.8-240.1c0-32.9-5.1-35.4-78.4-49.3c-96-17.7-164.3-61.9-212.3-137.8
		c-45.5-70.8-58.1-147.9-37.9-230c16.4-68.2,80.9-154.2,140.3-185.8c24-11.4,36.6-27.8,36.6-46.8c0-15.2,40.4-326.1,89.7-691.3
		c68.2-505.5,94.8-671.1,112.5-695.1c31.6-46.8,84.7-73.3,202.2-102.4c144.1-36.6,428.4-30.3,562.4,13.9
		c108.7,34.1,170.6,91,170.6,152.9c0,97.3,2.5,98.6,131.4,96c178.2-3.8,188.3,6.3,242.6,243.9c82.1,362.7,106.2,789.9,48,868.2
		c-37.9,49.3-93.5,79.6-166.8,88.5l-64.5,7.6l24,32.9c13.9,17.7,26.5,53.1,29.1,79.6c2.5,29.1,19,63.2,45.5,93.5
		c56.9,63.2,77.1,117.5,77.1,197.2c0,85.9-32.9,155.4-98.6,214.8c-44.2,40.4-116.3,73.3-161.8,73.3c-8.8,0-19,15.2-24,35.4
		c-13.9,55.6-67,113.7-136.5,150.4c-54.3,27.8-83.4,34.1-160.5,34.1c-80.9,0-104.9-5.1-159.2-35.4l-64.5-35.4l-65.7,32.9
		C1192.5,2493.7,1078.8,2510.1,1014.3,2492.4z M1267.1,2405.2c53.1-37.9,61.9-40.4,80.9-22.7c44.2,40.4,134,70.8,208.5,70.8
		c128.9,0,228.7-68.2,256.5-176.9c11.4-40.4,16.4-44.2,69.5-50.6c78.4-10.1,142.8-56.9,180.7-131.4
		c50.6-101.1,35.4-197.2-45.5-276.8c-39.2-39.2-49.3-59.4-49.3-93.5c0-68.2-41.7-123.9-121.3-163c-64.5-31.6-78.4-32.9-174.4-26.5
		l-106.2,7.6l-6.3-35.4c-8.8-44.2-63.2-109.9-111.2-134c-19-10.1-68.2-19-107.4-19c-89.7,0-165.6,40.4-200.9,106.2
		c-13.9,25.3-30.3,45.5-35.4,45.5c-6.3,0-27.8-13.9-48-30.3c-109.9-93.5-281.8-19-313.4,135.2c-7.6,34.1-15.2,41.7-59.4,50.6
		c-63.2,11.4-152.9,85.9-176.9,144.1c-27.8,63.2-21.5,165.6,11.4,225c44.2,79.6,120.1,123.9,217.4,130.2l82.1,5.1v49.3
		c0,93.5,51.8,170.6,145.3,216.1c39.2,17.7,73.3,22.7,147.9,20.2C1197.6,2446.9,1215.3,2441.9,1267.1,2405.2z M712.3,1562.3
		c22.7-68.2,55.6-108.7,113.7-141.5c63.2-36.6,158-37.9,223.7-5.1l46.8,24l27.8-37.9c15.2-21.5,58.1-53.1,96-70.8
		c132.7-60.7,294.5-13.9,357.7,103.6l30.3,56.9l69.5-6.3c50.6-6.3,88.5-1.3,142.8,16.4c45.5,16.4,72,20.2,72,11.4
		c0-7.6-39.2-295.7-88.5-639.5c-101.1-717.8-80.9-659.7-243.9-710.2c-75.8-24-120.1-29.1-267.9-29.1c-182,0-275.5,15.2-361.4,58.1
		c-24,11.4-51.8,31.6-60.7,41.7c-10.1,11.4-54.3,295.7-109.9,698.9c-50.6,374.1-93.5,682.4-93.5,683.7c0,2.5,6.3,2.5,13.9,0
		C688.3,1614.1,702.2,1590.1,712.3,1562.3z M2126.5,1492.8c61.9-58.1,70.8-175.7,36.6-467.6c-19-161.8-64.5-419.6-93.5-520.7
		c-19-67-53.1-85.9-152.9-85.9c-128.9,0-137.8,8.8-117.5,111.2c7.6,37.9,11.4,39.2,78.4,43c68.2,3.8,69.5,5.1,85.9,51.8
		c40.4,116.3,97.3,663.5,73.3,701.4c-7.6,11.4-37.9,26.5-65.7,32.9l-53.1,11.4l7.6,51.8c15.2,117.5,10.1,112.5,93.5,106.2
		C2075.9,1524.4,2102.5,1515.5,2126.5,1492.8z M1998.8,1304.5c16.4-25.3-43-554.8-72-643.3c-13.9-41.7-20.2-46.8-61.9-50.6
		c-32.9-2.5-48,1.3-48,12.6c0,8.8,20.2,168.1,46.8,355.1l46.8,337.4h40.4C1973.5,1315.8,1995,1310.8,1998.8,1304.5z"/>
</g>
</svg>
